<svg width="277" height="252" viewBox="0 0 277 252" fill="none" xmlns="http://www.w3.org/2000/svg">
<g opacity="0.1">
<path d="M37.3391 98.3054C74.1503 76.6632 113.125 58.7015 151.019 38.8996C158.381 34.5711 167.584 29.1605 176.028 26.6724C181.549 23.426 189.994 20.9379 196.921 24.2946C203.848 27.6512 208.175 35.0124 211.421 40.5333C216.831 49.7347 222.241 58.9362 229.491 67.0555C239.229 83.6182 250.807 99.0987 258.704 116.743C265.519 132.548 255.558 140.881 242.674 148.456C205.862 170.098 167.211 192.822 129.318 212.624C116.434 220.199 96.5109 236.865 81.5749 228.311C74.648 224.955 71.0787 214.671 67.8328 209.15C62.4231 199.949 57.0133 190.747 49.763 182.628C40.0254 166.065 28.4472 150.585 23.4727 133.698C20.2268 128.177 18.8215 121.574 23.2613 116.488C21.0973 112.807 24.7785 110.643 25.5371 107.72C31.0588 104.474 33.6579 100.47 37.3391 98.3054C36.2571 96.4651 36.2571 96.4651 36.2571 96.4651C24.1318 101.117 12.0065 105.77 11.136 121.14C9.9421 131.748 18.5977 146.47 24.0075 155.671C33.7451 172.234 42.4007 186.956 52.1383 203.519C58.6301 214.561 66.5271 232.205 79.2991 237.079C92.0711 241.952 106.796 233.295 115.998 227.884C134.404 217.063 152.81 206.242 172.297 197.261C192.543 185.358 210.949 174.537 231.195 162.633C242.238 156.141 258.045 149.324 264.002 138.393C267.36 131.466 264.872 123.023 263.467 116.42C257.734 102.455 248.32 90.6554 241.828 79.6136C234.254 66.7316 226.681 53.8496 217.266 42.0496C212.939 34.6885 206.447 23.6467 195.839 22.4542C187.071 20.1797 177.868 25.5903 167.584 29.1605C154.376 31.9726 139.652 40.6295 125.686 46.364C95.155 61.8375 66.4647 76.2289 37.0157 93.5427C34.4165 97.5472 36.5805 101.228 37.3391 98.3054Z" fill="#13714C"/>
<path d="M228.409 65.2154C192.68 88.698 68.7154 151.674 36.6672 172.992L22.6018 149.069C57.5724 128.508 202.541 50.7068 212.503 42.3738L228.409 65.2154Z" fill="#13714C"/>
<path d="M227.327 63.3751C194.956 79.9307 161.826 99.4087 129.454 115.964C97.0826 132.52 64.7112 149.076 34.5036 169.312L37.4261 170.07C33.0983 162.709 27.6885 153.507 23.3607 146.146L22.6021 149.069C57.5727 128.508 91.7848 110.871 126.755 90.3106C145.161 79.4894 164.649 70.5086 184.895 58.6053C194.098 53.1948 206.223 48.5424 214.344 41.2916L211.421 40.5334C216.831 49.7349 222.999 56.0139 227.327 63.3751C228.409 65.2154 230.25 64.1332 227.327 63.3751C222.999 56.0139 217.59 46.8125 213.262 39.4513C212.18 37.611 210.339 38.6931 210.339 38.6931C201.136 44.1036 190.093 50.5963 180.89 56.0069C162.485 66.828 144.079 77.6491 124.592 86.63C89.6209 107.19 55.4089 124.828 20.4382 145.388C18.5977 146.47 18.5976 146.47 19.6796 148.31C24.0074 155.672 29.4172 164.873 33.745 172.234C34.8269 174.074 37.7495 174.833 39.59 173.751C69.7976 153.514 103.251 138.799 134.541 120.403C152.946 109.582 172.434 100.601 190.839 89.78C203.723 82.2052 216.607 74.6304 229.491 67.0557C230.25 64.1333 229.168 62.2929 227.327 63.3751Z" fill="#13714C"/>
<path d="M70.3328 175.487C71.4148 177.328 76.1779 177.004 77.2598 178.844C80.1823 179.602 80.1823 179.602 83.1048 180.36C84.1868 182.201 86.0273 181.118 87.1093 182.959C88.9499 181.877 90.7904 180.795 89.7085 178.954C87.5446 175.274 82.7815 175.598 79.859 174.839C75.8545 172.241 70.0095 170.725 70.3328 175.487C69.2509 173.647 69.2509 173.647 70.3328 175.487Z" fill="#13714C"/>
<path d="M85.056 166.831C83.974 164.991 81.0515 164.233 80.2929 167.155C77.6938 171.16 76.1765 177.005 74.6593 182.849C73.9007 185.772 77.9052 188.37 80.5044 184.366C81.263 181.443 82.0215 178.521 82.7801 175.598C83.5388 172.676 84.2974 169.754 85.056 166.831C85.056 166.831 86.1379 168.672 85.056 166.831Z" fill="#13714C"/>
<path d="M89.8207 166.506C90.9026 168.347 95.6657 168.023 96.7476 169.863C99.6702 170.621 102.593 171.379 105.515 172.138C108.438 172.896 111.037 168.891 107.032 166.293C105.95 164.453 103.028 163.694 100.105 162.936C97.1829 162.178 91.3379 160.662 89.8207 166.506C90.5793 163.584 88.7387 164.666 89.8207 166.506Z" fill="#13714C"/>
<path d="M103.463 156.009C101.623 157.091 99.0237 161.096 98.2651 164.018C95.6659 168.022 94.9073 170.945 95.2307 175.708C94.4721 178.63 100.317 180.146 101.076 177.224C101.834 174.301 102.593 171.379 104.11 165.534C103.028 163.694 105.627 159.689 103.463 156.009Z" fill="#13714C"/>
<path d="M108.226 155.685C109.308 157.526 114.071 157.202 116.994 157.96C119.916 158.718 122.839 159.476 125.761 160.234C128.684 160.993 130.201 155.148 127.278 154.39C126.196 152.549 123.274 151.791 118.511 152.115C115.588 151.357 112.666 150.599 108.985 152.763C108.985 152.763 107.144 153.845 108.226 155.685Z" fill="#13714C"/>
<path d="M120.787 143.348C118.946 144.43 118.188 147.352 117.429 150.275C116.67 153.197 115.912 156.12 115.153 159.042C114.394 161.964 118.399 164.563 120.998 160.558C121.757 157.636 122.515 154.714 125.114 150.709C122.192 149.951 124.791 145.946 120.787 143.348Z" fill="#13714C"/>
<path d="M155.086 197.474C153.245 198.556 153.245 198.556 155.086 197.474C154.327 200.397 156.168 199.315 159.09 200.073L162.013 200.831C161.69 196.068 155.086 197.474 155.086 197.474C152.163 196.716 151.405 199.639 155.086 197.474C153.245 198.556 153.245 198.556 155.086 197.474Z" fill="#13714C"/>
<path d="M155.844 194.552C155.844 194.552 156.926 196.392 158.767 195.31C160.607 194.228 161.689 196.068 163.53 194.986C163.53 194.986 163.53 194.986 165.37 193.904C165.37 193.904 165.37 193.904 164.288 192.064C162.448 193.146 157.685 193.47 155.844 194.552Z" fill="#13714C"/>
<path d="M161.365 191.306C162.447 193.147 164.287 192.065 165.369 193.905C168.292 194.663 168.292 194.663 170.132 193.581C170.132 193.581 171.973 192.499 170.891 190.659C169.809 188.818 167.968 189.9 165.046 189.142C166.128 190.982 163.205 190.224 161.365 191.306Z" fill="#13714C"/>
<path d="M165.805 186.219C166.887 188.06 169.81 188.818 171.65 187.736C174.573 188.494 175.655 190.334 176.414 187.412C176.414 187.412 175.332 185.572 173.491 186.654L170.568 185.895C170.568 185.895 167.646 185.137 165.805 186.219Z" fill="#13714C"/>
<path d="M171.328 182.972C174.25 183.731 180.095 185.247 183.018 186.005C184.858 184.923 184.858 184.923 183.776 183.083C180.854 182.325 177.931 181.566 175.009 180.808C175.009 180.808 172.086 180.05 171.328 182.972Z" fill="#13714C"/>
<path d="M175.766 177.887C178.689 178.645 179.771 180.485 182.693 181.243C185.616 182.001 188.538 182.76 190.379 181.677C189.297 179.837 184.534 180.161 181.611 179.403C180.529 177.563 177.607 176.804 175.766 177.887Z" fill="#13714C"/>
<path d="M183.129 173.558C186.052 174.316 188.974 175.074 191.897 175.833C194.819 176.591 195.901 178.431 197.742 177.349C196.66 175.509 192.655 172.91 190.815 173.992C188.651 170.312 185.728 169.554 183.129 173.558C182.047 171.718 183.129 173.558 183.129 173.558Z" fill="#13714C"/>
<path d="M145.884 202.885L148.806 203.643C149.888 205.483 150.647 202.561 149.565 200.721C149.565 200.721 147.724 201.803 145.884 202.885Z" fill="#13714C"/>
<path d="M142.201 205.05C145.124 205.808 145.124 205.808 142.201 205.05C145.124 205.808 145.124 205.808 142.201 205.05C144.041 203.968 144.041 203.968 142.201 205.05Z" fill="#13714C"/>
<path d="M189.41 167.389C192.332 168.147 195.255 168.905 198.177 169.664C201.1 170.422 206.945 171.938 210.626 169.774C210.626 169.774 210.626 169.774 209.544 167.934C206.621 167.175 204.781 168.258 203.699 166.417C200.776 165.659 198.936 166.741 197.854 164.901C194.173 167.065 193.091 165.225 189.41 167.389Z" fill="#13714C"/>
<path d="M195.69 161.22C198.613 161.978 201.535 162.736 206.299 162.412C209.221 163.171 213.984 162.847 216.907 163.605C214.743 159.924 211.062 162.089 208.139 161.33C205.217 160.572 199.372 159.056 195.69 161.22Z" fill="#13714C"/>
<path d="M201.969 155.052C205.973 157.651 210.737 157.327 216.582 158.843C222.427 160.359 226.431 162.958 231.953 159.712C227.948 157.113 223.185 157.437 217.34 155.921C211.495 154.404 205.65 152.888 201.969 155.052Z" fill="#13714C"/>
<path d="M210.09 147.802C211.172 149.642 213.013 148.56 213.013 148.56C215.935 149.318 217.017 151.158 218.858 150.076C224.703 151.592 233.47 153.867 238.233 153.543C238.233 153.543 240.074 152.461 237.151 151.703C231.306 150.186 225.461 148.67 220.698 148.994C219.616 147.154 215.612 144.555 210.09 147.802C211.931 146.719 210.09 147.802 210.09 147.802Z" fill="#13714C"/>
<path d="M218.211 140.55C222.215 143.149 226.978 142.825 232.824 144.341C238.669 145.858 243.432 145.534 249.277 147.05C247.113 143.369 242.35 143.693 237.587 144.017C230.66 140.661 224.056 142.067 218.211 140.55Z" fill="#13714C"/>
<path d="M227.414 135.14C236.181 137.415 247.871 140.447 257.397 139.799C257.397 139.799 259.238 138.717 256.315 137.959C252.311 135.361 245.707 136.767 239.862 135.25C236.94 134.492 231.095 132.976 227.414 135.14C226.332 133.3 224.491 134.382 227.414 135.14Z" fill="#13714C"/>
<path d="M231.53 125.29C235.535 127.889 240.298 127.565 246.143 129.081C251.988 130.598 257.833 132.114 262.596 131.79C262.596 131.79 264.437 130.708 262.596 131.79C258.592 129.192 252.746 127.675 247.983 127.999C245.061 127.241 242.138 126.483 237.375 126.807C234.453 126.049 233.371 124.208 231.53 125.29Z" fill="#13714C"/>
<path d="M233.807 116.523C237.811 119.121 242.574 118.797 248.419 120.314C254.265 121.83 260.11 123.346 265.955 124.863L267.795 123.781C263.791 121.182 257.946 119.666 255.023 118.908C246.256 116.633 238.57 116.199 233.807 116.523Z" fill="#13714C"/>
<path d="M234.241 108.838C238.246 111.437 243.009 111.113 247.772 110.789C250.695 111.547 252.535 110.465 253.617 112.305C256.54 113.063 256.54 113.063 259.462 113.822C257.298 110.141 252.535 110.465 250.695 111.547C246.69 108.949 241.927 109.272 234.241 108.838C236.082 107.756 234.241 108.838 234.241 108.838Z" fill="#13714C"/>
<path d="M235.76 102.993C238.682 103.751 241.605 104.509 244.527 105.267C247.45 106.025 247.45 106.025 250.372 106.784L253.295 107.542C253.295 107.542 253.295 107.542 255.136 106.46C254.054 104.619 249.291 104.943 246.368 104.185C244.204 100.505 238.359 98.9882 235.76 102.993C236.519 100.07 235.76 102.993 235.76 102.993Z" fill="#13714C"/>
<path d="M236.194 95.3079C239.117 96.0661 240.958 94.984 243.88 95.7422C246.803 96.5004 249.725 97.2586 251.566 96.1765C251.566 96.1765 253.406 95.0943 250.484 94.3361C249.402 92.4958 247.561 93.5779 244.639 92.8197C242.798 93.9018 239.876 93.1437 236.194 95.3079C235.113 93.4676 236.194 95.3079 236.194 95.3079Z" fill="#13714C"/>
<path d="M235.871 90.5456C236.953 92.3858 238.793 91.3038 240.634 90.2216C242.474 89.1395 245.397 89.8977 245.397 89.8977C244.315 88.0574 242.474 89.1395 241.392 87.2992C239.552 88.3813 236.629 87.6232 235.871 90.5456C234.789 88.7053 235.871 90.5456 235.871 90.5456Z" fill="#13714C"/>
<path d="M232.625 85.0247L235.547 85.7828C237.388 84.7007 238.47 86.5411 240.31 85.459C242.151 84.3768 241.069 82.5365 239.228 83.6186C237.388 84.7007 236.306 82.8604 234.465 83.9425C236.306 82.8604 234.465 83.9425 232.625 85.0247Z" fill="#13714C"/>
<path d="M231.219 78.4219L234.141 79.18C235.982 78.0979 237.064 79.9382 238.905 78.8561C238.905 78.8561 238.905 78.8561 240.745 77.774C240.745 77.774 240.745 77.7739 239.663 75.9337C237.823 77.0158 236.741 75.1755 234.9 76.2577C233.06 77.3398 231.219 78.4219 231.219 78.4219Z" fill="#13714C"/>
<path d="M229.055 74.7413C230.137 76.5816 231.978 75.4995 233.818 74.4174C233.818 74.4174 233.818 74.4174 235.659 73.3353C235.659 73.3353 235.659 73.3353 234.577 71.495C232.736 72.5771 230.896 73.6592 229.055 74.7413Z" fill="#13714C"/>
<path d="M228.733 69.9776C228.733 69.9776 229.815 71.8179 231.656 70.7358L234.578 71.4939C232.414 67.8134 229.492 67.0552 228.733 69.9776Z" fill="#13714C"/>
<path d="M21.1961 142.466C24.1187 143.224 24.1187 143.224 27.0412 143.982C28.8817 142.9 29.9637 144.74 31.8043 143.658C30.7223 141.818 28.8818 142.9 25.9592 142.142C24.8773 140.302 21.9547 139.544 21.1961 142.466C20.1142 140.626 18.2736 141.708 21.1961 142.466Z" fill="#13714C"/>
<path d="M17.9501 136.945C19.0321 138.785 20.8727 137.703 23.7952 138.461C25.6357 137.379 26.7177 139.22 28.5582 138.137C30.3988 137.055 31.4807 138.896 33.3213 137.814C33.3213 137.814 35.1618 136.731 32.2393 135.973C31.1574 134.133 26.3943 134.457 24.5537 135.539C23.4718 133.699 20.5493 132.941 17.9501 136.945C16.8682 135.105 16.8682 135.105 17.9501 136.945Z" fill="#13714C"/>
<path d="M15.4644 128.501C16.5463 130.341 19.4689 131.099 22.3914 131.858C25.3139 132.616 28.2364 133.374 32.9995 133.05C32.9995 133.05 34.84 131.968 33.758 130.128C30.8355 129.369 27.913 128.611 24.9905 127.853C22.068 127.095 17.3049 127.419 15.4644 128.501Z" fill="#13714C"/>
<path d="M15.8996 120.816C15.141 123.738 20.986 125.255 22.8265 124.173C25.749 124.931 28.6716 125.689 30.5121 124.607C33.4346 125.365 34.5166 127.205 36.3571 126.123C36.3571 126.123 36.3572 126.123 35.2752 124.283C34.1933 122.443 27.5896 123.849 26.5077 122.008C23.5851 121.25 21.7446 122.332 20.6627 120.492C18.8221 121.574 15.8996 120.816 15.8996 120.816Z" fill="#13714C"/>
<path d="M18.4973 116.812C19.5792 118.653 24.3423 118.329 27.2648 119.087C30.1873 119.845 36.0323 121.361 37.8729 120.279C37.8729 120.279 39.7134 119.197 36.7909 118.439C35.709 116.599 30.9459 116.923 28.0234 116.164C26.1828 117.247 22.1784 114.648 18.4973 116.812C19.2559 113.89 17.4153 114.972 18.4973 116.812Z" fill="#13714C"/>
<path d="M23.696 108.803C25.86 112.484 28.7825 113.242 31.705 114C34.6276 114.758 37.5501 115.516 39.3906 114.434C41.2312 113.352 42.3132 115.193 44.1537 114.11C43.0718 112.27 41.2312 113.352 41.2312 113.352C38.3086 112.594 36.4681 113.676 35.3862 111.836C32.4636 111.078 29.5411 110.32 29.5411 110.32C26.6186 109.561 23.696 108.803 23.696 108.803Z" fill="#13714C"/>
<path d="M28.1371 103.715C27.3785 106.638 32.1416 106.314 35.0641 107.072C37.9866 107.83 37.9866 107.83 40.9091 108.588C40.9091 108.588 43.8316 109.347 45.6722 108.264C45.6722 108.264 47.5128 107.182 46.4308 105.342C45.3489 103.502 40.5858 103.826 37.6632 103.068C34.7407 102.309 34.7408 102.309 31.8183 101.551C33.9822 105.232 31.0596 104.474 28.1371 103.715C29.9777 102.633 29.9777 102.633 28.1371 103.715Z" fill="#13714C"/>
<path d="M34.4175 97.5469C34.4175 97.5469 35.4994 99.3872 34.4175 97.5469C35.4994 99.3872 35.4994 99.3872 34.4175 97.5469C36.5814 101.227 39.5039 101.986 41.3445 100.904C44.267 101.662 47.1895 102.42 49.03 101.338C49.03 101.338 50.8706 100.256 49.7887 98.4154C48.7067 96.5751 43.9436 96.899 43.9436 96.899C42.1031 97.9811 40.2625 99.0632 34.4175 97.5469C37.34 98.3051 36.258 96.4648 34.4175 97.5469C36.258 96.4648 36.258 96.4648 34.4175 97.5469C36.258 96.4648 34.4175 97.5469 34.4175 97.5469Z" fill="#13714C"/>
<path d="M47.6242 94.7351C48.7061 96.5754 50.5467 95.4933 53.4692 96.2515C55.3097 95.1694 56.3917 97.0096 58.2322 95.9275C58.2322 95.9275 58.2322 95.9275 57.1503 94.0873C56.0684 92.247 54.2278 93.329 52.3872 94.4112C51.3053 92.5709 49.4647 93.653 47.6242 94.7351C46.5422 92.8949 47.6242 94.7351 47.6242 94.7351Z" fill="#13714C"/>
<path d="M54.987 90.4065C56.0689 92.2468 58.9915 93.005 60.832 91.9229C62.6726 90.8408 62.6726 90.8408 61.5906 89.0005L58.6681 88.2423C56.8275 89.3244 55.7456 87.4841 54.987 90.4065C53.905 88.5662 54.987 90.4065 54.987 90.4065Z" fill="#13714C"/>
<path d="M60.5072 87.1609L63.4297 87.9191L66.3523 88.6773C66.3523 88.6773 68.1928 87.5952 67.1109 85.7549L64.1884 84.9967C64.1884 84.9967 62.3478 86.0788 60.5072 87.1609C59.4253 85.3206 60.5072 87.1609 60.5072 87.1609Z" fill="#13714C"/>
<path d="M67.87 82.832L70.7925 83.5902C70.7925 83.5902 70.7925 83.5902 73.715 84.3484C71.5511 80.6678 68.6286 79.9096 67.87 82.832C66.788 80.9917 64.9475 82.0738 67.87 82.832Z" fill="#13714C"/>
<path d="M73.3922 79.5852C74.4742 81.4255 76.3147 80.3434 78.1553 79.2613C78.1553 79.2613 79.9959 78.1792 77.0734 77.421C77.0734 77.421 74.1508 76.6628 73.3922 79.5852C74.1508 76.6628 73.3922 79.5852 73.3922 79.5852Z" fill="#13714C"/>
<path d="M82.5951 74.1746L85.5176 74.9327C86.2762 72.0104 83.3537 71.2522 82.5951 74.1746Z" fill="#13714C"/>
<path d="M36.6672 172.992C37.7492 174.833 39.5897 173.751 40.6717 175.591C40.6717 175.591 43.5942 176.349 42.5122 174.509C41.4303 172.668 39.5897 173.751 39.5897 173.751C40.3483 170.828 38.5078 171.91 36.6672 172.992Z" fill="#13714C"/>
<path d="M41.7533 177.432C42.8352 179.272 45.7578 180.03 47.5983 178.948C45.4344 175.267 43.5938 176.349 41.7533 177.432C40.6713 175.591 38.8308 176.673 41.7533 177.432Z" fill="#13714C"/>
<path d="M44.999 182.952C46.081 184.793 47.9216 183.711 49.0035 185.551C49.0035 185.551 50.8441 184.469 49.7621 182.628C46.8396 181.87 46.8396 181.87 44.999 182.952C46.8396 181.87 44.999 182.952 44.999 182.952Z" fill="#13714C"/>
<path d="M49.0034 185.551C47.1628 186.633 47.1628 186.633 49.0034 185.551C47.1628 186.633 47.1628 186.633 49.0034 185.551C47.1628 186.633 47.1628 186.633 49.0034 185.551C47.1628 186.633 47.1628 186.633 48.2448 188.473C49.3267 190.314 54.0898 189.99 53.0079 188.149C53.0079 188.149 51.9259 186.309 49.0034 185.551C50.0854 187.391 50.0854 187.391 49.0034 185.551C49.0034 185.551 47.1628 186.633 49.0034 185.551C47.1628 186.633 47.1628 186.633 49.0034 185.551Z" fill="#13714C"/>
<path d="M51.4912 193.994C49.6506 195.076 49.6506 195.076 49.6506 195.076C50.7326 196.916 52.5731 195.834 54.4137 194.752C54.4137 194.752 54.4137 194.752 51.4912 193.994C53.3318 192.912 53.3318 192.912 51.4912 193.994Z" fill="#13714C"/>
</g>
</svg>
