<?xml version="1.0" encoding="UTF-8"?>
<svg xmlns="http://www.w3.org/2000/svg" xmlns:xlink="http://www.w3.org/1999/xlink" viewBox="0 0 24 24" width="24px" height="24px">
<g id="surface77766573">
<path style=" stroke:none;fill-rule:nonzero;fill:rgb(100%,100%,100%);fill-opacity:1;" d="M 12 0.921875 C 5.890625 0.921875 0.921875 5.890625 0.921875 12 C 0.921875 18.109375 5.890625 23.078125 12 23.078125 C 18.109375 23.078125 23.078125 18.109375 23.078125 12 C 23.078125 5.890625 18.109375 0.921875 12 0.921875 Z M 12 2.769531 C 17.109375 2.769531 21.230469 6.890625 21.230469 12 C 21.230469 17.109375 17.109375 21.230469 12 21.230469 C 6.890625 21.230469 2.769531 17.109375 2.769531 12 C 2.769531 6.890625 6.890625 2.769531 12 2.769531 Z M 15.867188 6.519531 C 15.726562 6.539062 15.613281 6.613281 15.519531 6.75 L 10.992188 13.472656 L 8.855469 11.367188 C 8.671875 11.085938 8.320312 11.066406 8.132812 11.25 L 7.296875 12.085938 C 7.113281 12.363281 7.113281 12.738281 7.296875 12.921875 L 10.527344 16.152344 C 10.710938 16.246094 10.972656 16.441406 11.25 16.441406 C 11.433594 16.441406 11.730469 16.34375 11.914062 16.066406 L 17.453125 7.933594 C 17.636719 7.65625 17.53125 7.394531 17.164062 7.210938 L 16.242188 6.546875 C 16.148438 6.5 16.003906 6.496094 15.867188 6.519531 Z M 15.867188 6.519531 "/>
</g>
</svg>
