<svg width="24" height="24" viewBox="0 0 24 24" fill="none" xmlns="http://www.w3.org/2000/svg">
<path d="M20.6133 11.025C20.6063 10.3922 20.6039 9.75469 20.6016 9.11953H18.7079C18.7008 9.75234 18.6961 10.3875 18.6914 11.025C18.0539 11.0273 17.4211 11.032 16.7883 11.0391V12.9352C17.4211 12.9422 18.0586 12.9469 18.6914 12.9539C18.6985 13.5867 18.6985 14.2219 18.7032 14.8547H20.5993C20.6016 14.2219 20.6063 13.5867 20.611 12.9492C21.2485 12.9422 21.8813 12.9398 22.5141 12.9328V11.0367C21.8836 11.032 21.2461 11.032 20.6133 11.025ZM8.19145 11.0344C8.1891 11.7914 8.19145 12.5508 8.19379 13.3078C9.4641 13.35 10.7368 13.3312 12.0071 13.35C11.4469 16.1695 7.61488 17.0836 5.58754 15.2414C3.5016 13.6266 3.60004 10.0852 5.76801 8.58516C7.28441 7.37578 9.43832 7.67344 10.9547 8.72109C11.55 8.17031 12.1079 7.57969 12.6446 6.97031C11.3836 5.96484 9.83676 5.24766 8.19145 5.32266C4.75551 5.20781 1.59848 8.21719 1.54223 11.6555C1.32191 14.4656 3.16879 17.2195 5.77504 18.2133C8.37191 19.2141 11.7024 18.532 13.3618 16.1977C14.4563 14.7234 14.693 12.825 14.5641 11.0414C12.4383 11.025 10.3149 11.0273 8.19145 11.0344Z" fill="#AEB4DD"/>
</svg>
